<?xml version="1.0" encoding="UTF-8" standalone="no"?>
<!-- Created with Inkscape (http://www.inkscape.org/) -->

<svg
   width="249.97781mm"
   height="49.118641mm"
   viewBox="0 0 249.97781 49.118641"
   version="1.1"
   id="svg1"
   xml:space="preserve"
   sodipodi:docname="SinfoniaSongsHori.svg"
   inkscape:version="1.3.2 (091e20e, 2023-11-25, custom)"
   xmlns:inkscape="http://www.inkscape.org/namespaces/inkscape"
   xmlns:sodipodi="http://sodipodi.sourceforge.net/DTD/sodipodi-0.dtd"
   xmlns="http://www.w3.org/2000/svg"
   xmlns:svg="http://www.w3.org/2000/svg"><sodipodi:namedview
     id="namedview1"
     pagecolor="#505050"
     bordercolor="#eeeeee"
     borderopacity="1"
     inkscape:showpageshadow="0"
     inkscape:pageopacity="0"
     inkscape:pagecheckerboard="0"
     inkscape:deskcolor="#d1d1d1"
     inkscape:document-units="mm"
     inkscape:zoom="0.90585604"
     inkscape:cx="491.24804"
     inkscape:cy="108.73692"
     inkscape:window-width="1920"
     inkscape:window-height="1009"
     inkscape:window-x="1912"
     inkscape:window-y="-8"
     inkscape:window-maximized="1"
     inkscape:current-layer="layer1" /><defs
     id="defs1" /><g
     inkscape:label="Layer 1"
     inkscape:groupmode="layer"
     id="layer1"
     transform="translate(-450.39926,40.025558)"><g
       id="g18"
       transform="translate(119.02815,-30.932737)"><path
         id="path14"
         style="font-size:37.6746px;line-height:1.25;font-family:Gilland;-inkscape-font-specification:Gilland;text-align:center;letter-spacing:0px;word-spacing:0px;text-anchor:middle;fill:#000000;fill-opacity:1;stroke-width:0.613169"
         d="m 515.27863,6.8905355 c -5.29772,0 -8.90334,4.0711375 -8.90334,9.2707515 0,5.175105 3.6299,9.320362 8.92762,9.320362 5.19965,0 8.58449,-3.948687 8.58449,-9.197372 0,-5.076985 -3.16386,-9.3937415 -8.60877,-9.3937415 z m -1.81488,1.7414957 c 4.16949,0 6.47506,6.6710608 6.47506,10.0557168 0,1.986658 -0.68678,4.979024 -3.23753,4.979024 -3.58089,0 -6.10712,-5.911254 -6.10712,-9.73739 0,-1.765918 0.53956,-5.2973508 2.86959,-5.2973508 z" /><path
         id="path12"
         style="font-size:37.6746px;line-height:1.25;font-family:Gilland;-inkscape-font-specification:Gilland;text-align:center;letter-spacing:0px;word-spacing:0px;text-anchor:middle;fill:#000000;fill-opacity:1;stroke-width:0.613169"
         d="m 490.21969,-1.8122925 c -1.29836,0 -2.61229,0.1965817 -3.94084,0.5891113 -1.32853,0.36232969 -2.53604,0.92049074 -3.62304,1.67534998 -1.05681,0.72466932 -1.93276,1.64593992 -2.62723,2.76313882 -0.66428,1.1171889 -0.99632,2.4005657 -0.99632,3.8498942 0,1.2681688 0.302,2.2642956 0.90589,2.9889652 0.60389,0.724659 1.38918,1.268061 2.35541,1.630391 0.99642,0.36233 2.12852,0.604241 3.39669,0.72502 1.26817,0.12078 2.56629,0.196153 3.89485,0.226343 l -0.58859,1.313615 c -1.32856,-0.0302 -2.64197,-0.06085 -3.94033,-0.09095 -1.26817,-0.0302 -2.41555,-0.165661 -3.44217,-0.407211 -0.99642,-0.241559 -1.81176,-0.619438 -2.44584,-1.132747 -0.60389,-0.5435 -0.8906,-1.343571 -0.86041,-2.4003704 -0.69445,0.3321394 -1.19254,0.8755324 -1.49449,1.6303914 -0.27175,0.754859 -0.40772,1.479548 -0.40772,2.174028 0,1.056799 0.28671,1.902716 0.86041,2.536796 0.60389,0.603889 1.38919,1.071909 2.35541,1.404048 0.99642,0.30195 2.09848,0.5133 3.30626,0.63407 1.23797,0.12078 2.49077,0.210921 3.75894,0.271301 -0.69447,1.207779 -1.41916,2.249762 -2.17403,3.125391 -0.75485,0.875639 -1.61553,1.479636 -2.58175,1.811776 0.18117,-0.30194 0.31714,-0.619234 0.40773,-0.951363 0.0906,-0.33214 0.13591,-0.664182 0.13591,-0.996322 0,-0.573699 -0.22612,-1.041719 -0.67903,-1.404049 -0.45292,-0.392529 -0.93622,-0.588594 -1.44953,-0.588594 -0.78505,0 -1.37377,0.21135 -1.7663,0.63407 -0.36233,0.392529 -0.54363,0.951207 -0.54363,1.675866 0,0.905829 0.27195,1.615243 0.81545,2.128553 0.5435,0.483109 1.26819,0.724503 2.17403,0.724503 1.32856,0 2.53603,-0.588711 3.62303,-1.7663 1.08701,-1.177579 2.11369,-2.626977 3.07992,-4.348055 1.087,0.0302 2.12897,0.0908 3.12539,0.181384 0.99642,0.0604 1.87185,0.19585 2.62671,0.40721 0.78506,0.18117 1.40382,0.4684 1.85674,0.86093 0.45291,0.362329 0.67954,0.860393 0.67954,1.494482 0,0.27175 -0.0153,0.558463 -0.0455,0.860413 -0.0302,0.271749 -0.12032,0.528419 -0.2713,0.769978 0.42273,0 0.81486,-0.166031 1.17718,-0.49816 0.36234,-0.36234 0.67962,-0.78502 0.95137,-1.26814 0.27175,-0.4831 0.48309,-0.981183 0.63407,-1.494482 0.18116,-0.54351 0.27182,-0.996761 0.27182,-1.359091 0,-0.996409 -0.24191,-1.79648 -0.72502,-2.40037 -0.48309,-0.603889 -1.13192,-1.056624 -1.94717,-1.358573 -0.78506,-0.33214 -1.70633,-0.54349 -2.76314,-0.63407 -1.05681,-0.12077 -2.15887,-0.196153 -3.30626,-0.226343 0.12078,-0.21136 0.22671,-0.42271 0.31729,-0.63407 0.0906,-0.211359 0.18124,-0.437985 0.27182,-0.679545 1.29836,0.0302 2.56645,0.09079 3.80442,0.181385 1.26817,0.0906 2.37023,0.286654 3.30626,0.588594 0.96622,0.30194 1.73627,0.769969 2.30994,1.404049 0.60388,0.603889 0.90588,1.44928 0.90588,2.536279 0,0.24155 -0.10593,0.648975 -0.31729,1.222664 -0.18117,0.5435 -0.43784,1.147497 -0.76998,1.811776 -0.33214,0.664279 -0.70951,1.358935 -1.13223,2.083594 -0.39253,0.694469 -0.79996,1.343795 -1.22266,1.947685 -0.39253,0.573689 -0.78518,1.056477 -1.17771,1.449007 -0.36233,0.362329 -0.66433,0.543636 -0.90589,0.543636 -0.48311,0 -0.99645,-0.0754 -1.53996,-0.226343 -0.51329,-0.18117 -1.05669,-0.377751 -1.63039,-0.589111 -0.5435,-0.21137 -1.10217,-0.39215 -1.67586,-0.54312 -0.5737,-0.181169 -1.14713,-0.271818 -1.72083,-0.271818 -2.7477,0 -5.32972,0.603997 -7.74526,1.811776 -2.38537,1.177579 -4.39345,2.91369 -6.02392,5.208468 l 0.58911,0.724503 c 0.39253,-0.422719 0.87531,-0.830134 1.449,-1.222664 0.60389,-0.39253 1.25321,-0.725089 1.94769,-0.996838 0.72467,-0.30194 1.4794,-0.543334 2.26446,-0.724504 0.81525,-0.18116 1.63059,-0.271818 2.44585,-0.271818 1.02658,0 1.9326,0.0759 2.71766,0.226859 0.81525,0.12078 1.56999,0.316835 2.26446,0.588595 0.69447,0.27175 1.37384,0.633836 2.03812,1.086755 0.66428,0.42272 1.40425,0.936069 2.2195,1.539958 0.51331,-0.573689 0.936,-1.192465 1.26814,-1.856734 0.33214,-0.694479 0.72479,-1.343795 1.17771,-1.947685 0.87564,-1.177579 1.81171,-2.324968 2.80809,-3.442167 1.02662,-1.117189 1.97742,-2.264588 2.85306,-3.442167 0.87564,-1.207779 1.60033,-2.47587 2.17403,-3.804419 0.60389,-1.328559 0.90589,-2.793232 0.90589,-4.39353 0,-1.358749 -0.31677,-2.430259 -0.95085,-3.215308 -0.63409,-0.7850492 -1.47947,-1.3890461 -2.53628,-1.8117757 -1.05681,-0.4227196 -2.2648,-0.6946742 -3.62355,-0.8154541 -1.32856,-0.1509699 -2.68729,-0.2563966 -4.07624,-0.3167766 0.24156,-0.4529195 0.48298,-0.8608515 0.72451,-1.2231811 0.24156,-0.3925296 0.48346,-0.7546157 0.72502,-1.0867554 0.72464,-0.8756391 1.55477,-1.6609425 2.4908,-2.3554118 0.93603,-0.7246692 1.7514,-1.5547749 2.44585,-2.490804 L 498.64347,-5.1676432e-4 497.69262,0.76946208 c -1.087,-0.78504922 -2.26443,-1.40381467 -3.5326,-1.85673418 -1.26817,-0.4831096 -2.58158,-0.7250204 -3.94033,-0.7250204 z m -3.75946,2.3554118 c 0.84544,0 1.79676,0.22610878 2.85357,0.6790283 1.05681,0.4227196 1.94752,0.9966727 2.67219,1.721342 0.63408,0.6340793 1.01145,1.222801 1.13223,1.7663004 0.12078,0.5434995 -0.0305,1.1775402 -0.4532,1.9022095 l -0.63407,1.0417969 c -1.32856,-0.0302 -2.61192,-0.060234 -3.8499,-0.090434 -1.23794,-0.0604 -2.34005,-0.1963672 -3.30625,-0.407727 -0.96623,-0.2415498 -1.75101,-0.5888773 -2.3549,-1.0417969 -0.57369,-0.4831095 -0.86041,-1.1777647 -0.86041,-2.0835937 0,-0.5434995 0.16602,-1.0262876 0.49816,-1.4490072 0.33214,-0.4227196 0.73955,-0.7853224 1.22266,-1.0872721 0.48312,-0.3019397 0.99646,-0.52805851 1.53996,-0.67902836 0.5737,-0.18115982 1.08704,-0.27181804 1.53996,-0.27181784 z" /><path
         style="font-size:37.6746px;line-height:1.25;font-family:Gilland;-inkscape-font-specification:Gilland;text-align:center;letter-spacing:0px;word-spacing:0px;text-anchor:middle;fill:#000000;fill-opacity:1;stroke-width:0.613169"
         d="m 526.21733,7.160265 c 0.46601,0.78485 0.5886,1.76593 0.5886,2.28099 v 13.39143 c 0,0.7358 -0.0983,1.59434 -0.51522,2.37919 h 4.88084 c -0.41696,-0.78485 -0.58859,-1.59434 -0.58859,-2.37919 v -8.11836 l 7.21093,10.49755 h 4.48861 c -0.3679,-0.88296 -0.44183,-1.74145 -0.44183,-2.64894 V 9.441255 c 0,-0.78485 0.22098,-1.54519 0.6134,-2.28099 h -4.92993 c 0.41694,0.7358 0.5395,1.52039 0.5395,2.25619 v 10.59573 l -7.45588,-10.86548 c -0.31884,-0.49054 -0.39274,-0.83393 -0.39274,-1.32447 0,-0.19621 0.0246,-0.4167 0.0491,-0.66197 z"
         id="path17" /><path
         style="font-size:37.6746px;line-height:1.25;font-family:Gilland;-inkscape-font-specification:Gilland;text-align:center;letter-spacing:0px;word-spacing:0px;text-anchor:middle;fill:#000000;fill-opacity:1;stroke-width:0.613169"
         d="m 568.96718,6.890515 c -3.0413,0 -6.42597,1.6675 -6.42597,5.07669 0,2.5753 1.96249,3.94882 4.6359,5.83737 1.05462,0.71128 2.64841,1.81503 2.64841,3.28662 0,0.85843 -0.51475,2.40347 -2.52594,2.40347 -1.79044,0 -2.86982,-1.20179 -4.12068,-2.2319 0,1.15274 0.0491,2.33024 0.0491,3.48299 1.10371,0.49052 2.6981,0.73587 4.07159,0.73587 3.33563,0 6.76909,-1.59452 6.76909,-5.49424 0,-2.69793 -1.64332,-3.77678 -4.56199,-5.71438 -1.05466,-0.71127 -2.94297,-1.71681 -2.94297,-3.13934 0,-0.78485 0.51528,-2.50166 2.52646,-2.50166 1.7414,0 3.16395,1.29965 4.19406,2.25619 l 0.0734,0.0734 -0.19637,-3.38429 c -1.32445,-0.51506 -2.52625,-0.68678 -4.19406,-0.68678 z"
         id="path16" /><path
         style="font-size:37.6746px;line-height:1.25;font-family:Gilland;-inkscape-font-specification:Gilland;text-align:center;letter-spacing:0px;word-spacing:0px;text-anchor:middle;fill:#000000;fill-opacity:1;stroke-width:0.613169"
         d="m 554.1779,6.890515 c -5.71471,0 -9.51673,3.99761 -9.51673,9.68778 0,5.39584 3.45818,8.90333 8.92762,8.90333 2.50173,0 4.53769,-0.71109 6.76961,-1.71669 -0.31885,-0.76032 -0.44132,-1.54547 -0.44132,-2.30581 v -2.52594 c 0,-0.76033 0.19589,-1.52062 0.56379,-2.2319 h -5.15059 c 0.36789,0.71128 0.6134,1.47157 0.6134,2.2319 v 4.26744 l -0.31884,0.12248 c -0.41695,0.17169 -1.00554,0.17156 -1.22628,0.17156 -3.60542,0 -5.34696,-4.38985 -5.34696,-7.8481 0,-3.21298 1.54494,-6.91689 5.49372,-6.91689 1.74141,0 3.18847,0.71162 4.19406,1.71721 v -2.69803 c -1.37348,-0.53958 -2.94272,-0.85834 -4.56148,-0.85834 z"
         id="path15" /></g><g
       id="g19"><path
         id="path9"
         style="font-size:37.6746px;line-height:1.25;font-family:Gilland;-inkscape-font-specification:Gilland;text-align:center;letter-spacing:0px;word-spacing:0px;text-anchor:middle;fill:#000000;fill-opacity:1;stroke-width:0.613169"
         d="m 579.30004,-23.228556 c -0.19621,1.152739 -0.58839,2.329968 -0.98082,3.458187 l -3.99769,11.4044714 c -0.39242,1.0791689 -0.95671,2.1833636 -1.83968,3.1889526 h 4.88084 c -0.0491,-0.3433696 -0.0734,-0.6867737 -0.0734,-1.0056234 0,-1.1772688 0.44155,-2.30567 0.73587,-3.4338989 l 0.0977,-0.3679362 h 4.97903 l 0.0982,0.3922241 c 0.2698,1.1282289 0.68678,2.2809081 0.68678,3.4581869 0,0.2943197 -0.0247,0.6381978 -0.0982,0.9570475 h 5.37124 l -0.22065,-0.3188436 c -0.98103,-1.4225386 -1.47134,-3.0659949 -1.93735,-4.7092734 l -2.3549,-8.216553 c -0.46601,-1.594228 -0.83389,-3.188193 -0.95653,-4.806941 z m 1.79059,3.212723 1.71721,7.529773 h -3.94912 z" /><path
         id="path3"
         style="font-size:37.6746px;line-height:1.25;font-family:Gilland;-inkscape-font-specification:Gilland;text-align:center;letter-spacing:0px;word-spacing:0px;text-anchor:middle;fill:#000000;fill-opacity:1;stroke-width:0.613169"
         d="m 536.30525,-23.498824 c -5.29776,0 -8.90333,4.071634 -8.90333,9.271269 0,5.1751045 3.62987,9.320361 8.92762,9.320361 5.19962,0 8.58449,-3.9492034 8.58449,-9.197888 0,-5.076995 -3.16391,-9.393742 -8.60878,-9.393742 z m -1.81539,1.741496 c 4.1695,0 6.47505,6.671557 6.47505,10.056233 0,1.9866484 -0.68676,4.9785079 -3.23753,4.9785079 -3.58086,0 -6.10712,-5.9107369 -6.10712,-9.7368729 0,-1.765909 0.53957,-5.297868 2.8696,-5.297868 z" /><path
         id="path1"
         style="font-size:37.6746px;line-height:1.25;font-family:Gilland;-inkscape-font-specification:Gilland;text-align:center;letter-spacing:0px;word-spacing:0px;text-anchor:middle;fill:#000000;fill-opacity:1;stroke-width:0.613169"
         d="m 472.85227,-32.745288 c -1.29833,0 -2.61179,0.196592 -3.94032,0.589111 -1.32856,0.36234 -2.53655,0.921008 -3.62355,1.675867 -1.05678,0.724669 -1.93224,1.645433 -2.62672,2.762622 -0.66428,1.117199 -0.99632,2.400556 -0.99632,3.849894 0,1.268169 0.30148,2.264296 0.90537,2.988965 0.60389,0.724669 1.38919,1.268579 2.35541,1.630908 0.99642,0.36233 2.12856,0.603734 3.3967,0.724504 1.26816,0.12078 2.56684,0.196143 3.89536,0.226343 l -0.58911,1.313615 c -1.32856,-0.0302 -2.64196,-0.06023 -3.94032,-0.09043 -1.26814,-0.0302 -2.41556,-0.166178 -3.44217,-0.407727 -0.99642,-0.24156 -1.81176,-0.618921 -2.44585,-1.132231 -0.60389,-0.543499 -0.8906,-1.344088 -0.86041,-2.400887 -0.69447,0.33214 -1.19254,0.876049 -1.49448,1.630908 -0.27175,0.754869 -0.40773,1.479558 -0.40773,2.174028 0,1.056809 0.28672,1.9022 0.86041,2.536279 0.60389,0.603889 1.38922,1.071909 2.35542,1.404049 0.99641,0.301949 2.09847,0.51329 3.30625,0.63407 1.23798,0.120779 2.49129,0.211428 3.75946,0.271818 -0.69447,1.207778 -1.41918,2.249234 -2.17402,3.1248734 -0.75487,0.8756392 -1.61553,1.4796361 -2.58176,1.8117758 0.18117,-0.3019397 0.31714,-0.6192335 0.40773,-0.9513632 0.0906,-0.3321396 0.13591,-0.6641819 0.13591,-0.9963216 0,-0.5736894 -0.22663,-1.0417094 -0.67955,-1.4040484 -0.45292,-0.39252 -0.93622,-0.588595 -1.44952,-0.588595 -0.78506,0 -1.37377,0.21135 -1.7663,0.63407 -0.36234,0.39253 -0.54364,0.9511974 -0.54364,1.6758667 0,0.9058291 0.27195,1.6152428 0.81546,2.1285523 0.5435,0.4831095 1.26819,0.7245035 2.17402,0.7245035 1.32856,0 2.53658,-0.5887216 3.62356,-1.7663004 1.087,-1.1775788 2.11317,-2.6269771 3.07939,-4.3480551 1.08701,0.0302 2.12899,0.0908 3.12539,0.181384 0.99642,0.0604 1.87185,0.196368 2.62672,0.407727 0.78505,0.18116 1.40433,0.467883 1.85725,0.860413 0.45292,0.36233 0.67903,0.860403 0.67903,1.4944824 0,0.2717497 -0.0148,0.5584729 -0.045,0.8604126 -0.0302,0.2717597 -0.12085,0.5284291 -0.27182,0.7699789 0.42272,0 0.81537,-0.1660212 1.17771,-0.4981609 0.36233,-0.3623296 0.67909,-0.7850301 0.95084,-1.2681396 0.27175,-0.4831095 0.4831,-0.9811734 0.63407,-1.4944824 0.18117,-0.543499 0.27182,-0.996244 0.27182,-1.358573 0,-0.996419 -0.24139,-1.796998 -0.7245,-2.400887 -0.48312,-0.60389 -1.13244,-1.056634 -1.94769,-1.358574 -0.78506,-0.33214 -1.70581,-0.54349 -2.76262,-0.63407 -1.05681,-0.12078 -2.15887,-0.196153 -3.30626,-0.226342 0.12078,-0.21137 0.22619,-0.422701 0.31678,-0.63407 0.0906,-0.21135 0.18123,-0.437986 0.27182,-0.679545 1.29834,0.0302 2.56647,0.0908 3.80442,0.181384 1.26816,0.0906 2.37022,0.286645 3.30625,0.588594 0.96623,0.30194 1.73624,0.76997 2.30994,1.404049 0.60389,0.60389 0.90589,1.449281 0.90589,2.536279 0,0.24155 -0.10542,0.649482 -0.31678,1.223182 -0.18117,0.543499 -0.43784,1.146979 -0.76998,1.811259 -0.33214,0.6642689 -0.71002,1.358924 -1.13274,2.0835933 -0.39252,0.6944693 -0.79995,1.3437953 -1.22267,1.9476847 -0.39253,0.5736894 -0.78518,1.0564876 -1.17771,1.4490072 -0.36232,0.3623396 -0.66433,0.543636 -0.90588,0.543636 -0.48312,0 -0.99646,-0.075403 -1.53996,-0.2263427 -0.51331,-0.1811699 -1.0567,-0.3772348 -1.63039,-0.5885946 -0.5435,-0.2113598 -1.10217,-0.3926562 -1.67587,-0.5436361 -0.5737,-0.1811598 -1.14715,-0.271818 -1.72082,-0.271818 -2.7477,0 -5.32919,0.6040069 -7.74475,1.8117757 -2.38537,1.1775888 -4.39342,2.9136899 -6.02392,5.20846763 l 0.58859,0.72450357 c 0.39253,-0.4227196 0.87583,-0.83013477 1.44953,-1.22266438 0.60387,-0.39252961 1.25321,-0.72457189 1.94768,-0.99632162 0.72467,-0.30194969 1.4794,-0.5438605 2.26446,-0.7250203 0.81525,-0.1811699 1.6306,-0.2713013 2.44585,-0.2713013 1.02661,0 1.93209,0.075403 2.71714,0.2263428 0.81526,0.1207798 1.57051,0.3168448 2.26498,0.58859453 0.69448,0.27174973 1.37384,0.63435259 2.03812,1.08727213 0.66428,0.42271958 1.40373,0.93606824 2.21899,1.53995764 0.5133,-0.5736894 0.936,-1.1929716 1.26814,-1.85725093 0.33214,-0.69446931 0.72478,-1.34379537 1.1777,-1.94768477 0.87564,-1.1775888 1.81168,-2.3249782 2.8081,-3.4421671 1.02661,-1.1171889 1.97793,-2.2645784 2.85357,-3.4421672 0.87564,-1.2077692 1.60033,-2.4758702 2.17403,-3.8044192 0.60389,-1.328558 0.90537,-2.792705 0.90537,-4.393013 0,-1.358749 -0.31676,-2.430775 -0.95085,-3.215825 -0.63408,-0.785059 -1.47947,-1.389056 -2.53627,-1.811775 -1.05678,-0.42272 -2.2648,-0.694675 -3.62356,-0.815454 -1.32856,-0.15098 -2.68731,-0.256387 -4.07623,-0.316777 0.24155,-0.45291 0.48346,-0.860841 0.72502,-1.223181 0.24155,-0.39253 0.48294,-0.754616 0.7245,-1.086755 0.72467,-0.87563 1.55478,-1.660933 2.4908,-2.355412 0.93603,-0.72466 1.75138,-1.554775 2.44585,-2.490804 l -0.7245,-0.543636 -0.95137,0.769978 c -1.087,-0.785049 -2.26443,-1.403824 -3.5326,-1.856734 -1.26817,-0.483119 -2.58157,-0.72502 -3.94033,-0.72502 z m -3.75946,2.355412 c 0.84545,0 1.79677,0.226625 2.85358,0.679545 1.0568,0.422719 1.94755,0.996156 2.67219,1.720825 0.63408,0.634079 1.01145,1.222801 1.13223,1.7663 0.12075,0.5435 -0.03,1.177551 -0.45269,1.90221 l -0.63407,1.041797 c -1.32856,-0.0302 -2.61195,-0.06023 -3.84989,-0.09043 -1.23798,-0.0604 -2.34004,-0.196357 -3.30626,-0.407727 -0.96623,-0.24155 -1.75154,-0.588887 -2.35541,-1.041797 -0.5737,-0.483109 -0.86042,-1.177248 -0.86042,-2.083077 0,-0.543499 0.16602,-1.026804 0.49816,-1.449524 0.33214,-0.422729 0.73956,-0.785322 1.22267,-1.087272 0.48311,-0.30194 0.99645,-0.528058 1.53996,-0.679028 0.57369,-0.18117 1.08704,-0.271818 1.53995,-0.271818 z" /><path
         style="font-size:37.6746px;line-height:1.25;font-family:Gilland;-inkscape-font-specification:Gilland;text-align:center;letter-spacing:0px;word-spacing:0px;text-anchor:middle;fill:#000000;fill-opacity:1;stroke-width:0.613169"
         d="m 566.42366,-23.228575 c 0.46599,0.73579 0.5886,1.56921 0.5886,2.28048 v 13.41623 c 0,0.76033 -0.14713,1.59458 -0.5886,2.3549 h 5.12579 c -0.44147,-0.76032 -0.5886,-1.59457 -0.5886,-2.3549 v -13.39143 c 0,-0.66221 0.0984,-1.56949 0.6625,-2.30528 z"
         id="path8" /><path
         style="font-size:37.6746px;line-height:1.25;font-family:Gilland;-inkscape-font-specification:Gilland;text-align:center;letter-spacing:0px;word-spacing:0px;text-anchor:middle;fill:#000000;fill-opacity:1;stroke-width:0.613169"
         d="m 547.24396,-23.228575 c 0.46601,0.78484 0.58859,1.76542 0.58859,2.28048 v 13.39194 c 0,0.7358 -0.0983,1.59434 -0.51521,2.37919 h 4.88084 c -0.41695,-0.78485 -0.5886,-1.59434 -0.5886,-2.37919 v -8.11836 l 7.21093,10.49755 h 4.4881 c -0.3679,-0.88296 -0.44132,-1.74146 -0.44132,-2.64894 v -13.12219 c 0,-0.78485 0.22045,-1.54469 0.61288,-2.28048 h -4.92941 c 0.41697,0.73579 0.5395,1.5204 0.5395,2.25619 v 10.59573 l -7.45639,-10.86548 c -0.31885,-0.49053 -0.39223,-0.83395 -0.39223,-1.32447 0,-0.19622 0.0246,-0.41671 0.0491,-0.66197 z"
         id="path7" /><path
         style="font-size:37.6746px;line-height:1.25;font-family:Gilland;-inkscape-font-specification:Gilland;text-align:center;letter-spacing:0px;word-spacing:0px;text-anchor:middle;fill:#000000;fill-opacity:1;stroke-width:0.613169"
         d="m 516.3647,-23.228575 c 0.41696,0.76032 0.53951,1.56949 0.53951,2.30528 v 13.36714 c 0,0.78485 -0.17165,1.59434 -0.5886,2.37919 h 5.32216 c -0.44148,-0.76032 -0.61289,-1.57005 -0.61289,-2.3549 v -5.15059 c 0.51506,-0.0736 1.05436,-0.12247 1.56942,-0.12247 0.53958,0 1.10395,0.0489 1.61902,0.17156 l 1.37356,-2.40347 h -4.562 v -5.59242 h 0.71107 c 1.1037,0 3.21296,0.0493 4.14497,0.34365 l 1.27537,-2.94297 z"
         id="path6" /><path
         style="font-size:37.6746px;line-height:1.25;font-family:Gilland;-inkscape-font-specification:Gilland;text-align:center;letter-spacing:0px;word-spacing:0px;text-anchor:middle;fill:#000000;fill-opacity:1;stroke-width:0.613169"
         d="m 497.1359,-23.228575 c 0.466,0.78484 0.5886,1.76542 0.5886,2.28048 v 13.39194 c 0,0.7358 -0.0983,1.59434 -0.51522,2.37919 h 4.88084 c -0.41695,-0.78485 -0.58859,-1.59434 -0.58859,-2.37919 v -8.11836 l 7.21093,10.49755 h 4.4881 c -0.36791,-0.88296 -0.44132,-1.74146 -0.44132,-2.64894 v -13.12219 c 0,-0.78485 0.22098,-1.54469 0.6134,-2.28048 h -4.92993 c 0.41695,0.73579 0.5395,1.5204 0.5395,2.25619 v 10.59573 l -7.45588,-10.86548 c -0.31885,-0.49053 -0.39274,-0.83395 -0.39274,-1.32447 0,-0.19622 0.0246,-0.41671 0.0491,-0.66197 z"
         id="path5" /><path
         style="font-size:37.6746px;line-height:1.25;font-family:Gilland;-inkscape-font-specification:Gilland;text-align:center;letter-spacing:0px;word-spacing:0px;text-anchor:middle;fill:#000000;fill-opacity:1;stroke-width:0.613169"
         d="m 488.99273,-23.228575 c 0.466,0.73579 0.58911,1.56921 0.58911,2.28048 v 13.41623 c 0,0.76033 -0.14764,1.59458 -0.58911,2.3549 h 5.1263 c -0.44149,-0.76032 -0.58859,-1.59457 -0.58859,-2.3549 v -13.39143 c 0,-0.66221 0.0979,-1.56949 0.66197,-2.30528 z"
         id="path4" /></g></g></svg>
