<?xml version="1.0" encoding="UTF-8" standalone="no"?>
<!-- Created with Inkscape (http://www.inkscape.org/) -->

<svg
   width="131.48039mm"
   height="65.490631mm"
   viewBox="0 0 131.48039 65.490631"
   version="1.1"
   id="svg1"
   xml:space="preserve"
   xmlns:inkscape="http://www.inkscape.org/namespaces/inkscape"
   xmlns:sodipodi="http://sodipodi.sourceforge.net/DTD/sodipodi-0.dtd"
   xmlns="http://www.w3.org/2000/svg"
   xmlns:svg="http://www.w3.org/2000/svg"><sodipodi:namedview
     id="namedview1"
     pagecolor="#505050"
     bordercolor="#eeeeee"
     borderopacity="1"
     inkscape:showpageshadow="0"
     inkscape:pageopacity="0"
     inkscape:pagecheckerboard="0"
     inkscape:deskcolor="#d1d1d1"
     inkscape:document-units="mm" /><defs
     id="defs1" /><g
     inkscape:label="Layer 1"
     inkscape:groupmode="layer"
     id="layer1"
     transform="translate(-252.49639,32.745315)"><path
       id="path692-1"
       style="font-size:37.6746px;line-height:1.25;font-family:Gilland;-inkscape-font-specification:Gilland;text-align:center;letter-spacing:0px;word-spacing:0px;text-anchor:middle;fill:#000000;fill-opacity:1;stroke-width:0.613169"
       d="m 267.66914,-32.745315 c -1.29834,0 -2.61179,0.19659 -3.94032,0.58911 -1.32856,0.36234 -2.53655,0.92101 -3.62356,1.67587 -1.05678,0.72467 -1.93223,1.64543 -2.62671,2.76262 -0.66428,1.1172 -0.99632,2.40056 -0.99632,3.8499 0,1.26817 0.30148,2.26429 0.90537,2.98896 0.60389,0.72467 1.38919,1.26858 2.35541,1.63091 0.99642,0.36233 2.12855,0.60373 3.39669,0.7245 1.26817,0.12078 2.56684,0.19615 3.89537,0.22635 l -0.58911,1.31361 c -1.32856,-0.0302 -2.64196,-0.0602 -3.94033,-0.0904 -1.26814,-0.0302 -2.41555,-0.16617 -3.44216,-0.40772 -0.99642,-0.24156 -1.81176,-0.61893 -2.44585,-1.13224 -0.60389,-0.5435 -0.8906,-1.34408 -0.86041,-2.40088 -0.69447,0.33214 -1.19254,0.87604 -1.49448,1.6309 -0.27175,0.75487 -0.40773,1.47956 -0.40773,2.17403 0,1.05681 0.28672,1.9022 0.86041,2.53628 0.60389,0.60389 1.38921,1.07191 2.35541,1.40405 0.99642,0.30195 2.09848,0.51329 3.30626,0.63407 1.23798,0.12078 2.49129,0.21143 3.75946,0.27182 -0.69447,1.20778 -1.41918,2.24923 -2.17402,3.12487 -0.75487,0.87564 -1.61553,1.47964 -2.58176,1.81178 0.18117,-0.30194 0.31714,-0.61923 0.40773,-0.95136 0.0906,-0.33214 0.13591,-0.66419 0.13591,-0.99633 0,-0.57369 -0.22663,-1.04171 -0.67955,-1.40405 -0.45292,-0.39252 -0.93622,-0.58859 -1.44952,-0.58859 -0.78506,0 -1.37377,0.21135 -1.7663,0.63407 -0.36234,0.39253 -0.54364,0.9512 -0.54364,1.67587 0,0.90583 0.27195,1.61524 0.81546,2.12855 0.5435,0.48311 1.26819,0.7245 2.17402,0.7245 1.32856,0 2.53657,-0.58872 3.62355,-1.7663 1.08701,-1.17758 2.11318,-2.62697 3.0794,-4.34805 1.08701,0.0302 2.12898,0.0908 3.12539,0.18138 0.99642,0.0604 1.87185,0.19637 2.62672,0.40773 0.78505,0.18116 1.40433,0.46788 1.85725,0.86041 0.45292,0.36233 0.67903,0.8604 0.67903,1.49448 0,0.27175 -0.0148,0.55847 -0.045,0.86041 -0.0302,0.27176 -0.12085,0.52843 -0.27182,0.76998 0.42272,0 0.81537,-0.16602 1.17771,-0.49816 0.36233,-0.36233 0.67909,-0.78503 0.95084,-1.26814 0.27175,-0.48311 0.4831,-0.98117 0.63407,-1.49448 0.18117,-0.5435 0.27182,-0.99624 0.27182,-1.35857 0,-0.99642 -0.24139,-1.797 -0.7245,-2.40089 -0.48312,-0.60389 -1.13244,-1.05663 -1.94769,-1.35857 -0.78506,-0.33214 -1.70581,-0.54349 -2.76262,-0.63407 -1.05681,-0.12078 -2.15887,-0.19615 -3.30626,-0.22634 0.12078,-0.21137 0.22619,-0.42271 0.31678,-0.63408 0.0906,-0.21135 0.18123,-0.43798 0.27182,-0.67954 1.29834,0.0302 2.56646,0.0908 3.80441,0.18138 1.26817,0.0906 2.37023,0.28665 3.30626,0.5886 0.96623,0.30194 1.73624,0.76997 2.30994,1.40405 0.60389,0.60389 0.90589,1.44928 0.90589,2.53628 0,0.24155 -0.10542,0.64948 -0.31678,1.22318 -0.18117,0.5435 -0.43784,1.14698 -0.76998,1.81126 -0.33214,0.66427 -0.71002,1.35892 -1.13275,2.08359 -0.39252,0.69447 -0.79994,1.3438 -1.22266,1.94769 -0.39253,0.57369 -0.78518,1.05648 -1.17771,1.449 -0.36233,0.36234 -0.66433,0.54364 -0.90588,0.54364 -0.48312,0 -0.99646,-0.0754 -1.53996,-0.22634 -0.51331,-0.18117 -1.0567,-0.37724 -1.63039,-0.5886 -0.5435,-0.21136 -1.10217,-0.39266 -1.67587,-0.54364 -0.5737,-0.18116 -1.14715,-0.27181 -1.72082,-0.27181 -2.7477,0 -5.32919,0.604 -7.74475,1.81177 -2.38537,1.17759 -4.39342,2.91369 -6.02392,5.20847 l 0.58859,0.7245 c 0.39253,-0.42272 0.87583,-0.83013 1.44953,-1.22266 0.60387,-0.39253 1.25321,-0.72457 1.94768,-0.99632 0.72467,-0.30195 1.4794,-0.54386 2.26446,-0.72502 0.81525,-0.18117 1.6306,-0.2713 2.44585,-0.2713 1.02661,0 1.93209,0.0754 2.71714,0.22634 0.81526,0.12078 1.57051,0.31684 2.26498,0.58859 0.69448,0.27175 1.37384,0.63436 2.03812,1.08728 0.66428,0.42272 1.40373,0.93606 2.21899,1.53995 0.5133,-0.57369 0.936,-1.19297 1.26814,-1.85725 0.33214,-0.69447 0.72478,-1.34379 1.1777,-1.94768 0.87564,-1.17759 1.81168,-2.32498 2.8081,-3.44217 1.02661,-1.11719 1.97793,-2.26458 2.85357,-3.44217 0.87564,-1.20777 1.60033,-2.47586 2.17403,-3.80441 0.60389,-1.32856 0.90537,-2.79271 0.90537,-4.39302 0,-1.35875 -0.31676,-2.43077 -0.95085,-3.21582 -0.63408,-0.78506 -1.47947,-1.38906 -2.53628,-1.81178 -1.05678,-0.42272 -2.26479,-0.69467 -3.62355,-0.81545 -1.32856,-0.15098 -2.68731,-0.25639 -4.07623,-0.31678 0.24155,-0.45291 0.48346,-0.86084 0.72502,-1.22318 0.24155,-0.39253 0.48294,-0.75462 0.7245,-1.08676 0.72467,-0.87563 1.55477,-1.66093 2.4908,-2.35541 0.93603,-0.72466 1.75138,-1.55477 2.44585,-2.4908 l -0.7245,-0.54364 -0.95137,0.76998 c -1.087,-0.78505 -2.26443,-1.40382 -3.5326,-1.85673 -1.26817,-0.48312 -2.58157,-0.72502 -3.94033,-0.72502 z m -3.75946,2.35541 c 0.84545,0 1.79677,0.22663 2.85358,0.67955 1.0568,0.42272 1.94754,0.99616 2.67218,1.72083 0.63409,0.63408 1.01146,1.2228 1.13224,1.7663 0.12075,0.5435 -0.03,1.17754 -0.45269,1.9022 l -0.63407,1.0418 c -1.32856,-0.0302 -2.61194,-0.0602 -3.84989,-0.0904 -1.23798,-0.0604 -2.34004,-0.19636 -3.30626,-0.40773 -0.96623,-0.24155 -1.75154,-0.58888 -2.35541,-1.04179 -0.5737,-0.48311 -0.86042,-1.17725 -0.86042,-2.08308 0,-0.5435 0.16602,-1.0268 0.49816,-1.44952 0.33214,-0.42273 0.73956,-0.78533 1.22267,-1.08728 0.48311,-0.30194 0.99645,-0.52805 1.53996,-0.67902 0.57369,-0.18117 1.08704,-0.27182 1.53995,-0.27182 z m 67.21244,6.89106 c -5.29776,0 -8.90333,4.07163 -8.90333,9.27127 0,5.17511 3.62987,9.32036 8.92762,9.32036 5.19963,0 8.58449,-3.9492 8.58449,-9.19789 0,-5.077 -3.1639,-9.39374 -8.60878,-9.39374 z m -47.31236,0.27027 c 0.466,0.73579 0.58911,1.56921 0.58911,2.28048 v 13.41623 c 0,0.76033 -0.14764,1.59458 -0.58911,2.3549 h 5.1263 c -0.44149,-0.76032 -0.58859,-1.59457 -0.58859,-2.3549 v -13.39143 c 0,-0.66221 0.0979,-1.56949 0.66197,-2.30528 z m 8.14317,0 c 0.466,0.78484 0.5886,1.76542 0.5886,2.28048 v 13.39194 c 0,0.7358 -0.0983,1.59434 -0.51522,2.37919 h 4.88084 c -0.41695,-0.78485 -0.58859,-1.59434 -0.58859,-2.37919 v -8.11836 l 7.21093,10.49755 h 4.4881 c -0.36791,-0.88296 -0.44132,-1.74146 -0.44132,-2.64894 v -13.12219 c 0,-0.78485 0.22098,-1.54469 0.6134,-2.28048 h -4.92993 c 0.41695,0.73579 0.5395,1.5204 0.5395,2.25619 v 10.59573 l -7.45588,-10.86548 c -0.31885,-0.49053 -0.39274,-0.83395 -0.39274,-1.32447 0,-0.19622 0.0246,-0.41671 0.0491,-0.66197 z m 19.2288,0 c 0.41696,0.76032 0.53951,1.56949 0.53951,2.30528 v 13.36714 c 0,0.78485 -0.17165,1.59434 -0.5886,2.37919 h 5.32216 c -0.44148,-0.76032 -0.61289,-1.57005 -0.61289,-2.3549 v -5.15059 c 0.51506,-0.0736 1.05436,-0.12247 1.56942,-0.12247 0.53958,0 1.10395,0.0489 1.61902,0.17156 l 1.37356,-2.40347 h -4.562 v -5.59242 h 0.71107 c 1.1037,0 3.21296,0.0493 4.14497,0.34365 l 1.27537,-2.94297 z m 30.87926,0 c 0.46601,0.78484 0.58859,1.76542 0.58859,2.28048 v 13.39194 c 0,0.7358 -0.0983,1.59434 -0.51521,2.37919 h 4.88084 c -0.41695,-0.78485 -0.5886,-1.59434 -0.5886,-2.37919 v -8.11836 l 7.21093,10.49755 h 4.4881 c -0.3679,-0.88296 -0.44132,-1.74146 -0.44132,-2.64894 v -13.12219 c 0,-0.78485 0.22045,-1.54469 0.61288,-2.28048 h -4.92941 c 0.41697,0.73579 0.5395,1.5204 0.5395,2.25619 v 10.59573 l -7.45639,-10.86548 c -0.31885,-0.49053 -0.39223,-0.83395 -0.39223,-1.32447 0,-0.19622 0.0246,-0.41671 0.0491,-0.66197 z m 19.1797,0 c 0.46599,0.73579 0.5886,1.56921 0.5886,2.28048 v 13.41623 c 0,0.76033 -0.14713,1.59458 -0.5886,2.3549 h 5.12579 c -0.44147,-0.76032 -0.5886,-1.59457 -0.5886,-2.3549 v -13.39143 c 0,-0.66221 0.0984,-1.56949 0.6625,-2.30528 z m 12.87622,0 c -0.19621,1.15274 -0.58839,2.32996 -0.98082,3.45818 l -3.99769,11.40447 c -0.39242,1.07917 -0.95671,2.18337 -1.83968,3.18896 h 4.88084 c -0.0491,-0.34337 -0.0734,-0.68678 -0.0734,-1.00563 0,-1.17727 0.44155,-2.30567 0.73587,-3.4339 l 0.0977,-0.36793 h 4.97903 l 0.0982,0.39222 c 0.2698,1.12823 0.68678,2.28091 0.68678,3.45819 0,0.29432 -0.0247,0.6382 -0.0982,0.95705 h 5.37125 l -0.22066,-0.31885 c -0.98103,-1.42254 -1.47133,-3.06599 -1.93734,-4.70927 l -2.3549,-8.21655 c -0.46601,-1.59423 -0.83389,-3.18819 -0.95653,-4.80694 z m -44.81018,1.47122 c 4.16951,0 6.47505,6.67156 6.47505,10.05624 0,1.98665 -0.68676,4.9785 -3.23753,4.9785 -3.58087,0 -6.10712,-5.91073 -6.10712,-9.73687 0,-1.76591 0.53957,-5.29787 2.8696,-5.29787 z m 46.60077,1.7415 1.71721,7.52977 h -3.94912 z m -90.87094,18.20354 c -1.29836,0 -2.61229,0.19658 -3.94085,0.58911 -1.32853,0.36233 -2.53603,0.92049 -3.62303,1.67535 -1.05681,0.72467 -1.93276,1.64594 -2.62723,2.76314 -0.66428,1.11719 -0.99632,2.40056 -0.99632,3.84989 0,1.26817 0.302,2.2643 0.90589,2.98897 0.60389,0.72466 1.38918,1.26806 2.35541,1.63039 0.99642,0.36233 2.12852,0.60424 3.39669,0.72502 1.26817,0.12078 2.56629,0.19615 3.89485,0.22634 l -0.58859,1.31362 c -1.32856,-0.0302 -2.64197,-0.0608 -3.94033,-0.0909 -1.26817,-0.0302 -2.41555,-0.16566 -3.44217,-0.40721 -0.99642,-0.24156 -1.81176,-0.61944 -2.44584,-1.13275 -0.60389,-0.5435 -0.89061,-1.34357 -0.86042,-2.40037 -0.69445,0.33214 -1.19253,0.87553 -1.49448,1.63039 -0.27175,0.75486 -0.40772,1.47955 -0.40772,2.17403 0,1.0568 0.28671,1.90271 0.86041,2.53679 0.60389,0.60389 1.38919,1.07191 2.35541,1.40405 0.99642,0.30195 2.09848,0.5133 3.30626,0.63407 1.23797,0.12078 2.49077,0.21092 3.75894,0.2713 -0.69447,1.20778 -1.41916,2.24976 -2.17403,3.12539 -0.75486,0.87564 -1.61553,1.47964 -2.58175,1.81178 0.18117,-0.30194 0.31714,-0.61923 0.40773,-0.95136 0.0906,-0.33214 0.13591,-0.66418 0.13591,-0.99632 0,-0.5737 -0.22612,-1.04172 -0.67903,-1.40405 -0.45292,-0.39253 -0.93622,-0.5886 -1.44953,-0.5886 -0.78505,0 -1.37377,0.21135 -1.7663,0.63407 -0.36233,0.39253 -0.54363,0.95121 -0.54363,1.67587 0,0.90583 0.27195,1.61524 0.81545,2.12855 0.5435,0.48311 1.26819,0.72451 2.17403,0.72451 1.32856,0 2.53603,-0.58872 3.62303,-1.76631 1.08701,-1.17758 2.11369,-2.62697 3.07992,-4.34805 1.087,0.0302 2.12897,0.0908 3.12539,0.18138 0.99642,0.0604 1.87185,0.19585 2.62671,0.40721 0.78506,0.18117 1.40382,0.4684 1.85674,0.86093 0.45291,0.36233 0.67954,0.8604 0.67954,1.49449 0,0.27175 -0.0153,0.55846 -0.0455,0.86041 -0.0302,0.27175 -0.12033,0.52842 -0.27131,0.76998 0.42273,0 0.81486,-0.16603 1.17719,-0.49816 0.36234,-0.36234 0.67962,-0.78503 0.95137,-1.26815 0.27175,-0.4831 0.48309,-0.98117 0.63407,-1.49447 0.18116,-0.54351 0.27182,-0.99677 0.27182,-1.3591 0,-0.99641 -0.24191,-1.79648 -0.72503,-2.40037 -0.48309,-0.60389 -1.13191,-1.05662 -1.94716,-1.35857 -0.78506,-0.33214 -1.70633,-0.54349 -2.76314,-0.63407 -1.05681,-0.12077 -2.15887,-0.19615 -3.30626,-0.22634 0.12078,-0.21136 0.22671,-0.42271 0.31729,-0.63407 0.0906,-0.21136 0.18124,-0.43799 0.27182,-0.67955 1.29836,0.0302 2.56645,0.0908 3.80442,0.18139 1.26817,0.0906 2.37023,0.28665 3.30626,0.58859 0.96622,0.30194 1.73626,0.76997 2.30993,1.40405 0.60389,0.60389 0.90589,1.44928 0.90589,2.53628 0,0.24155 -0.10593,0.64897 -0.31729,1.22266 -0.18117,0.5435 -0.43784,1.1475 -0.76998,1.81178 -0.33214,0.66428 -0.70951,1.35893 -1.13223,2.08359 -0.39253,0.69447 -0.79996,1.3438 -1.22266,1.94769 -0.39253,0.57369 -0.78518,1.05648 -1.17771,1.44901 -0.36233,0.36233 -0.66433,0.54363 -0.90589,0.54363 -0.48311,0 -0.99645,-0.0754 -1.53996,-0.22634 -0.5133,-0.18117 -1.05669,-0.37775 -1.63039,-0.58911 -0.5435,-0.21137 -1.10217,-0.39215 -1.67586,-0.54312 -0.5737,-0.18117 -1.14713,-0.27182 -1.72083,-0.27182 -2.7477,0 -5.32972,0.604 -7.74526,1.81178 -2.38537,1.17758 -4.39344,2.91368 -6.02392,5.20846 l 0.58911,0.72451 c 0.39253,-0.42272 0.87531,-0.83014 1.449,-1.22267 0.60389,-0.39253 1.25321,-0.72509 1.94769,-0.99684 0.72467,-0.30194 1.4794,-0.54333 2.26446,-0.7245 0.81525,-0.18116 1.63059,-0.27182 2.44585,-0.27182 1.02659,0 1.9326,0.0759 2.71766,0.22686 0.81525,0.12078 1.56999,0.31684 2.26446,0.5886 0.69447,0.27175 1.37384,0.63383 2.03812,1.08675 0.66428,0.42272 1.40425,0.93607 2.2195,1.53996 0.51331,-0.57369 0.936,-1.19246 1.26814,-1.85673 0.33214,-0.69448 0.72479,-1.3438 1.17771,-1.94769 0.87564,-1.17758 1.8117,-2.32497 2.80809,-3.44217 1.02662,-1.11719 1.97742,-2.26458 2.85306,-3.44216 0.87564,-1.20778 1.60033,-2.47587 2.17403,-3.80442 0.60389,-1.32856 0.90589,-2.79323 0.90589,-4.39353 0,-1.35875 -0.31677,-2.43026 -0.95085,-3.21531 -0.63409,-0.78505 -1.47947,-1.38905 -2.53628,-1.81178 -1.05681,-0.42272 -2.2648,-0.69467 -3.62355,-0.81545 -1.32856,-0.15097 -2.68729,-0.25639 -4.07624,-0.31677 0.24156,-0.45292 0.48297,-0.86086 0.7245,-1.22319 0.24156,-0.39253 0.48347,-0.75461 0.72503,-1.08675 0.72464,-0.87564 1.55477,-1.66094 2.4908,-2.35541 0.93603,-0.72467 1.75139,-1.55478 2.44584,-2.49081 l -0.72502,-0.54364 -0.95084,0.76998 c -1.087,-0.78505 -2.26443,-1.40381 -3.5326,-1.85673 -1.26817,-0.48311 -2.58158,-0.72502 -3.94033,-0.72502 z m -3.75946,2.35541 c 0.84544,0 1.79676,0.22611 2.85357,0.67903 1.05681,0.42272 1.94752,0.99667 2.67219,1.72134 0.63408,0.63408 1.01145,1.2228 1.13223,1.7663 0.12078,0.5435 -0.0305,1.17754 -0.4532,1.90221 l -0.63407,1.0418 c -1.32856,-0.0302 -2.61192,-0.0602 -3.8499,-0.0904 -1.23795,-0.0604 -2.34005,-0.19637 -3.30625,-0.40773 -0.96623,-0.24155 -1.75101,-0.58888 -2.3549,-1.0418 -0.57369,-0.48311 -0.86041,-1.17776 -0.86041,-2.08359 0,-0.5435 0.16602,-1.02629 0.49816,-1.44901 0.33214,-0.42272 0.73955,-0.78532 1.22266,-1.08727 0.48312,-0.30194 0.99646,-0.52806 1.53996,-0.67903 0.5737,-0.18116 1.08704,-0.27182 1.53996,-0.27182 z m 28.81839,6.34742 c -5.29772,0 -8.90333,4.07113 -8.90333,9.27075 0,5.17511 3.62989,9.32036 8.92762,9.32036 5.19965,0 8.58449,-3.94868 8.58449,-9.19737 0,-5.07699 -3.16386,-9.39374 -8.60878,-9.39374 z m 38.89944,0 c -5.71471,0 -9.51673,3.99761 -9.51673,9.68778 0,5.39584 3.45818,8.90333 8.92762,8.90333 2.50173,0 4.53769,-0.71109 6.76961,-1.71669 -0.31885,-0.76032 -0.44132,-1.54547 -0.44132,-2.30581 v -2.52594 c 0,-0.76033 0.19589,-1.52062 0.56379,-2.2319 h -5.15059 c 0.36789,0.71128 0.6134,1.47157 0.6134,2.2319 v 4.26744 l -0.31884,0.12248 c -0.41695,0.17169 -1.00554,0.17156 -1.22628,0.17156 -3.60542,0 -5.34696,-4.38985 -5.34696,-7.8481 0,-3.21298 1.54494,-6.91689 5.49372,-6.91689 1.74141,0 3.18847,0.71162 4.19406,1.71721 v -2.69803 c -1.37348,-0.53958 -2.94272,-0.85834 -4.56148,-0.85834 z m 14.78928,0 c -3.0413,0 -6.42597,1.6675 -6.42597,5.07669 0,2.5753 1.96249,3.94882 4.6359,5.83737 1.05462,0.71128 2.64841,1.81503 2.64841,3.28662 0,0.85843 -0.51475,2.40347 -2.52594,2.40347 -1.79044,0 -2.86982,-1.20179 -4.12068,-2.2319 0,1.15274 0.0491,2.33024 0.0491,3.48299 1.10371,0.49052 2.6981,0.73587 4.07159,0.73587 3.33563,0 6.76909,-1.59452 6.76909,-5.49424 0,-2.69793 -1.64332,-3.77678 -4.56199,-5.71438 -1.05466,-0.71127 -2.94297,-1.71681 -2.94297,-3.13934 0,-0.78485 0.51528,-2.50166 2.52646,-2.50166 1.7414,0 3.16395,1.29965 4.19406,2.25619 l 0.0734,0.0734 -0.19637,-3.38429 c -1.32445,-0.51506 -2.52625,-0.68678 -4.19406,-0.68678 z m -42.74985,0.26975 c 0.46601,0.78485 0.5886,1.76593 0.5886,2.28099 v 13.39143 c 0,0.7358 -0.0983,1.59434 -0.51522,2.37919 h 4.88084 c -0.41696,-0.78485 -0.58859,-1.59434 -0.58859,-2.37919 v -8.11836 l 7.21093,10.49755 h 4.48861 c -0.3679,-0.88296 -0.44183,-1.74145 -0.44183,-2.64894 V 9.441255 c 0,-0.78485 0.22098,-1.54519 0.6134,-2.28099 h -4.92993 c 0.41694,0.7358 0.5395,1.52039 0.5395,2.25619 v 10.59573 l -7.45588,-10.86548 c -0.31884,-0.49054 -0.39274,-0.83393 -0.39274,-1.32447 0,-0.19621 0.0246,-0.4167 0.0491,-0.66197 z m -12.75374,1.47174 c 4.16949,0 6.47506,6.67106 6.47506,10.05572 0,1.98666 -0.68678,4.97902 -3.23753,4.97902 -3.58089,0 -6.10712,-5.91125 -6.10712,-9.73739 0,-1.76592 0.53956,-5.29735 2.86959,-5.29735 z"
       sodipodi:nodetypes="ccccsscscccccccsccccccsscscscscccccscccscsscccsccccscsccsscccsccccccscscccccccssscccccccccccsccccccccssscssssssscssccsscccssccscccssccsccscccssccscsccccsccccssccscccssccsccscccssccsscccccccsccccscccccccsssssccccccccsscscccccccsccccscsscscscssccccscccscsscccsccccscsccsscccsccccccscscccccccssscccccccccccscsscccccssscsssssssssscssccsccsssccssscssccsscsscccsscssccscccssccsccsccsssss" /></g></svg>
